<?xml version="1.0" encoding="utf-8"?>
<!-- Generator: Adobe Illustrator 27.1.0, SVG Export Plug-In . SVG Version: 6.00 Build 0)  -->
<svg version="1.1" id="Layer_1" xmlns="http://www.w3.org/2000/svg" xmlns:xlink="http://www.w3.org/1999/xlink" x="0px" y="0px"
	 viewBox="0 0 300 300" style="enable-background:new 0 0 300 300;" xml:space="preserve">
<style type="text/css">
	.st0{display:none;fill:#156EAC;}
	.st1{display:none;}
	.st2{display:inline;fill:#FFFFFF;}
	.st3{fill:#F6575E;}
</style>
<rect class="st0" width="300" height="300"/>
<g id="_x37_8bbb668-c36f-4781-8b02-31153290e5c2" transform="matrix(2.470680401591943,0,0,2.470680401591943,94.5879636364433,127.12149950482086)" class="st1">
	<path class="st2" d="M2.4,13L2.4,13H1.2l0,0c-0.2,0-0.3-0.1-0.3-0.3l0,0V4.3l0,0C0.9,4.1,1,4,1.2,4l0,0h3.4l0,0
		c0.7,0,1.3,0.2,1.7,0.6l0,0l0,0c0.4,0.4,0.6,1,0.6,1.7l0,0v1.3l0,0c0,0.7-0.2,1.3-0.6,1.7l0,0l0,0c-0.4,0.4-1,0.6-1.7,0.6l0,0H2.9
		l0,0c-0.1,0-0.2,0.1-0.2,0.1l0,0v2.7l0,0C2.7,12.9,2.6,13,2.4,13z M2.8,8.4L2.8,8.4h1.5l0,0c0.3,0,0.5-0.1,0.6-0.2l0,0l0,0
		c0.1-0.1,0.2-0.3,0.2-0.6l0,0V6.4l0,0c0-0.3-0.1-0.5-0.2-0.6l0,0l0,0C4.8,5.6,4.6,5.6,4.3,5.6l0,0H2.8l0,0c-0.1,0-0.2,0.1-0.1,0.2
		l0,0v2.5l0,0C2.7,8.3,2.7,8.4,2.8,8.4z M9.7,13L9.7,13H8.5l0,0c-0.2,0-0.3-0.1-0.3-0.3l0,0V6.2l0,0c0-0.2,0.1-0.3,0.3-0.3l0,0h1.2
		l0,0C9.9,5.9,10,6,10,6.2l0,0v0.5H10l0,0c0.1-0.3,0.3-0.4,0.5-0.6l0,0l0,0c0.3-0.1,0.5-0.2,0.8-0.2l0,0h0.5l0,0
		c0.2,0,0.3,0.1,0.3,0.3l0,0v1l0,0c0,0.1,0,0.2-0.1,0.2l0,0l0,0c0,0-0.1,0.1-0.2,0.1l0,0h-1l0,0c-0.6,0-1,0.4-1,1.1l0,0v4.2l0,0
		C10,12.9,9.9,13,9.7,13z M16.5,13L16.5,13h-1.2l0,0c-0.7,0-1.3-0.2-1.7-0.6l0,0l0,0c-0.4-0.4-0.6-1-0.6-1.7l0,0V8.2l0,0
		c0-0.7,0.2-1.3,0.6-1.7l0,0l0,0c0.4-0.4,1-0.6,1.7-0.6l0,0h1.2l0,0c0.7,0,1.3,0.2,1.7,0.6l0,0l0,0c0.4,0.4,0.6,1,0.6,1.7l0,0v2.6
		l0,0c0,0.7-0.2,1.3-0.6,1.7l0,0l0,0C17.8,12.8,17.2,13,16.5,13z M15.5,11.5L15.5,11.5h0.7l0,0c0.3,0,0.5-0.1,0.6-0.2l0,0l0,0
		c0.1-0.1,0.2-0.3,0.2-0.6l0,0V8.2l0,0c0-0.3-0.1-0.5-0.2-0.6l0,0l0,0c-0.1-0.1-0.3-0.2-0.6-0.2l0,0h-0.7l0,0
		c-0.3,0-0.5,0.1-0.6,0.2l0,0l0,0c-0.1,0.1-0.2,0.3-0.2,0.6l0,0v2.5l0,0c0,0.3,0.1,0.5,0.2,0.6l0,0l0,0C15,11.4,15.2,11.5,15.5,11.5
		z M20.3,4.7L20.3,4.7V3.5l0,0c0-0.2,0.1-0.3,0.3-0.3l0,0h1.2l0,0c0.2,0,0.3,0.1,0.3,0.3l0,0v1.2l0,0C22.1,4.9,22,5,21.8,5l0,0h-1.2
		l0,0C20.4,5,20.3,4.9,20.3,4.7z M19.7,15.3L19.7,15.3h-0.9l0,0c-0.2,0-0.3-0.1-0.3-0.3l0,0v-0.9l0,0c0-0.2,0.1-0.3,0.3-0.3l0,0h0.4
		l0,0c0.4,0,0.7-0.1,0.9-0.2l0,0l0,0c0.2-0.1,0.2-0.4,0.2-0.9l0,0V6.2l0,0c0-0.2,0.1-0.3,0.3-0.3l0,0h1.2l0,0c0.2,0,0.3,0.1,0.3,0.3
		l0,0v6.9l0,0c0,0.7-0.2,1.3-0.6,1.7l0,0l0,0C21,15.1,20.5,15.3,19.7,15.3z M28.9,13L28.9,13h-3.1l0,0c-0.7,0-1.3-0.2-1.7-0.6l0,0
		l0,0c-0.4-0.4-0.6-1-0.6-1.7l0,0V8.2l0,0c0-0.7,0.2-1.3,0.6-1.7l0,0l0,0c0.4-0.4,1-0.6,1.7-0.6l0,0h1.1l0,0c0.7,0,1.3,0.2,1.7,0.6
		l0,0l0,0c0.4,0.4,0.6,1,0.6,1.7l0,0v1.8l0,0c0,0.2-0.1,0.3-0.3,0.3l0,0h-3.5l0,0c-0.1,0-0.2,0.1-0.2,0.2l0,0v0.3l0,0
		c0,0.3,0.1,0.5,0.2,0.6l0,0l0,0c0.1,0.1,0.3,0.2,0.6,0.2l0,0h2.8l0,0c0.2,0,0.3,0.1,0.3,0.3l0,0v0.9l0,0c0,0.1,0,0.2-0.1,0.2l0,0
		l0,0C29.1,13,29,13,28.9,13z M25.4,9L25.4,9h1.9l0,0c0.1,0,0.2,0,0.2-0.1l0,0V8.2l0,0c0-0.3-0.1-0.5-0.2-0.6l0,0l0,0
		c-0.1-0.1-0.3-0.2-0.6-0.2l0,0h-0.6l0,0c-0.3,0-0.5,0.1-0.6,0.2l0,0l0,0c-0.1,0.1-0.2,0.3-0.2,0.6l0,0v0.7l0,0
		C25.3,9,25.3,9,25.4,9z M30.7,7.4L30.7,7.4h-0.6l0,0c-0.1,0-0.2,0-0.2-0.1l0,0l0,0c0,0-0.1-0.1-0.1-0.2l0,0v-1l0,0
		c0-0.2,0.1-0.3,0.3-0.3l0,0h0.6l0,0c0.1,0,0.1-0.1,0.1-0.2l0,0V4.4l0,0c0-0.2,0.1-0.3,0.3-0.3l0,0h1.2l0,0c0.2,0,0.3,0.1,0.3,0.3
		l0,0v1.3l0,0c0,0.1,0.1,0.1,0.2,0.2l0,0h1.1l0,0c0.2,0,0.3,0.1,0.3,0.3l0,0v1l0,0c0,0.1,0,0.2-0.1,0.2l0,0l0,0c0,0-0.1,0.1-0.2,0.1
		l0,0h-1.1l0,0c-0.1,0-0.2,0-0.2,0.2l0,0v3.1l0,0c0,0.3,0.1,0.5,0.2,0.6l0,0l0,0c0.1,0.1,0.3,0.2,0.6,0.2l0,0h0.6l0,0
		c0.2,0,0.3,0.1,0.3,0.3l0,0v1l0,0c0,0.1,0,0.2-0.1,0.2l0,0l0,0c0,0-0.1,0.1-0.2,0.1l0,0h-0.9l0,0c-0.7,0-1.3-0.2-1.7-0.6l0,0l0,0
		c-0.4-0.4-0.6-1-0.6-1.7l0,0V7.6l0,0C30.9,7.5,30.8,7.4,30.7,7.4z M39.7,13L39.7,13h-1.3l0,0c-0.2,0-0.2-0.1-0.2-0.3l0,0l2.2-8.4
		l0,0C40.4,4.1,40.6,4,40.8,4l0,0h1.9l0,0c0.2,0,0.4,0.1,0.4,0.3l0,0l2.2,8.4l0,0c0.1,0.2,0,0.3-0.2,0.3l0,0h-1.3l0,0
		c-0.1,0-0.2,0-0.2-0.1l0,0l0,0c0,0-0.1-0.1-0.1-0.2l0,0l-0.4-1.5h-2.7L40,12.7l0,0c0,0.1-0.1,0.2-0.1,0.2l0,0l0,0
		C39.8,13,39.8,13,39.7,13z M41.8,5.7L41.8,5.7l-1.1,4.1h2.1L41.8,5.7z M46.6,7.4L46.6,7.4H46l0,0c-0.1,0-0.2,0-0.2-0.1l0,0l0,0
		c0,0-0.1-0.1-0.1-0.2l0,0v-1l0,0c0-0.2,0.1-0.3,0.3-0.3l0,0h0.6l0,0c0.1,0,0.2-0.1,0.2-0.2l0,0V4.4l0,0c0-0.2,0.1-0.3,0.3-0.3l0,0
		h1.2l0,0c0.2,0,0.3,0.1,0.3,0.3l0,0v1.3l0,0c0,0.1,0.1,0.1,0.2,0.2l0,0h1.1l0,0C49.9,5.9,50,6,50,6.2l0,0v1l0,0
		c0,0.1,0,0.2-0.1,0.2l0,0l0,0c0,0-0.1,0.1-0.2,0.1l0,0h-1.1l0,0c-0.1,0-0.2,0-0.2,0.2l0,0v3.1l0,0c0,0.3,0.1,0.5,0.2,0.6l0,0l0,0
		c0.1,0.1,0.3,0.2,0.6,0.2l0,0h0.6l0,0c0.2,0,0.3,0.1,0.3,0.3l0,0v1l0,0c0,0.1,0,0.2-0.1,0.2l0,0l0,0c0,0-0.1,0.1-0.2,0.1l0,0H49
		l0,0c-0.7,0-1.3-0.2-1.7-0.6l0,0l0,0c-0.4-0.4-0.6-1-0.6-1.7l0,0V7.6l0,0C46.7,7.5,46.7,7.4,46.6,7.4z M52.9,13L52.9,13h-1.2l0,0
		c-0.2,0-0.3-0.1-0.3-0.3l0,0V3.5l0,0c0-0.2,0.1-0.3,0.3-0.3l0,0h1.2l0,0c0.2,0,0.3,0.1,0.3,0.3l0,0v9.3l0,0
		C53.2,12.9,53.1,13,52.9,13z M57.3,13L57.3,13H57l0,0c-0.7,0-1.3-0.2-1.7-0.6l0,0l0,0c-0.4-0.4-0.6-1-0.6-1.7l0,0V8.2l0,0
		c0-0.7,0.2-1.3,0.6-1.7l0,0l0,0c0.4-0.4,1-0.6,1.7-0.6l0,0h3.2l0,0c0.2,0,0.3,0.1,0.3,0.3l0,0v6.6l0,0c0,0.2-0.1,0.3-0.3,0.3l0,0
		H59l0,0c-0.2,0-0.3-0.1-0.3-0.3l0,0v-0.5h-0.1l0,0c-0.1,0.3-0.3,0.4-0.5,0.6l0,0l0,0C57.9,13,57.6,13,57.3,13z M58.7,10.4
		L58.7,10.4V7.6l0,0c0-0.1-0.1-0.2-0.2-0.2l0,0h-1.3l0,0c-0.3,0-0.5,0.1-0.6,0.2l0,0l0,0c-0.1,0.1-0.2,0.3-0.2,0.6l0,0v2.4l0,0
		c0,0.3,0.1,0.5,0.2,0.6l0,0l0,0c0.1,0.1,0.3,0.2,0.6,0.2l0,0h0.5l0,0C58.4,11.5,58.7,11.1,58.7,10.4z M64.8,13L64.8,13h-2.7l0,0
		c-0.2,0-0.3-0.1-0.3-0.3l0,0v-0.9l0,0c0-0.1,0-0.2,0.1-0.2l0,0l0,0c0,0,0.1-0.1,0.2-0.1l0,0h2.3l0,0c0.5,0,0.7-0.1,0.7-0.4l0,0
		v-0.1l0,0c0-0.2-0.2-0.4-0.6-0.6l0,0l-1.4-0.8l0,0c-0.5-0.2-0.8-0.5-1.1-0.8l0,0l0,0c-0.2-0.3-0.3-0.6-0.3-1.1l0,0l0,0
		c0-0.7,0.2-1.1,0.5-1.4l0,0l0,0c0.3-0.3,0.9-0.5,1.6-0.5l0,0h2.3l0,0c0.2,0,0.3,0.1,0.3,0.3l0,0v0.9l0,0c0,0.1,0,0.2-0.1,0.2l0,0
		l0,0c0,0-0.1,0.1-0.2,0.1l0,0h-1.9l0,0c-0.5,0-0.7,0.1-0.7,0.3l0,0v0.1l0,0c0,0.2,0.2,0.4,0.6,0.6l0,0l1.4,0.8l0,0
		c0.5,0.3,0.8,0.5,1,0.8l0,0l0,0c0.2,0.3,0.3,0.6,0.3,1.1l0,0l0,0C67,12.4,66.2,13,64.8,13z"/>
</g>
<g id="_x33_c3f75c7-632b-43f7-86b7-2143a64c751e" transform="matrix(0.4506520995954318,0,0,0.4506520995954318,40,127.46739502022841)">
	<path class="st3" d="M-88.8-282.9v665.7h311.1v-665.7H-88.8z M4.6,261.8h-62.2v-60.5H4.6C4.6,201.3,4.6,261.8,4.6,261.8z M4.6,171
		h-62.2v-60.5H4.6V171z M4.6,80.3h-62.2V19.7H4.6V80.3z M4.6-10.5h-62.2V-71H4.6V-10.5z M4.6-101.3h-62.2v-60.5H4.6V-101.3z
		 M4.6-192.1h-62.2v-60.5H4.6C4.6-252.6,4.6-192.1,4.6-192.1z M97.9,261.8H35.7v-60.5h62.2V261.8z M97.9,171H35.7v-60.5h62.2V171z
		 M97.9,80.3H35.7V19.7h62.2V80.3z M97.9-10.5H35.7V-71h62.2V-10.5z M97.9-101.3H35.7v-60.5h62.2V-101.3z M97.9-192.1H35.7v-60.5
		h62.2C97.9-252.6,97.9-192.1,97.9-192.1z M191.2,261.8H129v-60.5h62.2C191.2,201.3,191.2,261.8,191.2,261.8z M191.2,171H129v-60.5
		h62.2V171z M191.2,80.3H129V19.7h62.2V80.3z M191.2-10.5H129V-71h62.2V-10.5z M191.2-101.3H129v-60.5h62.2V-101.3z M191.2-192.1
		H129v-60.5h62.2C191.2-252.6,191.2-192.1,191.2-192.1z M265.9-101.3v484.1h311.1v-484.1H265.9z M359.2,261.8H297v-60.5h62.2
		C359.2,201.3,359.2,261.8,359.2,261.8z M359.2,171H297v-60.5h62.2V171z M359.2,80.3H297V19.7h62.2V80.3z M359.2-10.5H297V-71h62.2
		V-10.5z M452.5,261.8h-62.2v-60.5h62.2V261.8z M452.5,171h-62.2v-60.5h62.2V171z M452.5,80.3h-62.2V19.7h62.2V80.3z M452.5-10.5
		h-62.2V-71h62.2V-10.5z M545.8,261.8h-62.2v-60.5h62.2V261.8z M545.8,171h-62.2v-60.5h62.2V171z M545.8,80.3h-62.2V19.7h62.2V80.3z
		 M545.8-10.5h-62.2V-71h62.2V-10.5z"/>
</g>
</svg>
