<?xml version="1.0" encoding="utf-8"?>
<!-- Generator: Adobe Illustrator 27.1.0, SVG Export Plug-In . SVG Version: 6.00 Build 0)  -->
<svg version="1.1" id="Layer_1" xmlns="http://www.w3.org/2000/svg" xmlns:xlink="http://www.w3.org/1999/xlink" x="0px" y="0px"
	 viewBox="0 0 454 112" style="enable-background:new 0 0 454 112;" xml:space="preserve">
<style type="text/css">
	.st0{display:none;}
	.st1{display:inline;fill:#FFFFFF;}
	.st2{fill:#F6575E;}
	.st3{display:none;fill:#F6575E;}
</style>
<g id="_x33_45742e2-2e83-4621-98e6-90a7b617c0ff" transform="matrix(4.934210588231973,0,0,4.934210588231973,123.59098319655658,9.86476510523758)" class="st0">
	<path class="st1" d="M2.4,13L2.4,13H1.2l0,0c-0.2,0-0.3-0.1-0.3-0.3l0,0V4.3l0,0C0.9,4.1,1,4,1.2,4l0,0h3.4l0,0
		c0.7,0,1.3,0.2,1.7,0.6l0,0l0,0c0.4,0.4,0.6,1,0.6,1.7l0,0v1.3l0,0c0,0.7-0.2,1.3-0.6,1.7l0,0l0,0c-0.4,0.4-1,0.6-1.7,0.6l0,0H2.9
		l0,0c-0.1,0-0.2,0.1-0.2,0.1l0,0v2.6l0,0C2.7,12.9,2.6,13,2.4,13z M2.8,8.4L2.8,8.4h1.5l0,0c0.3,0,0.5-0.1,0.6-0.2l0,0l0,0
		c0.1-0.1,0.2-0.3,0.2-0.6l0,0V6.4l0,0c0-0.3-0.1-0.5-0.2-0.6l0,0l0,0C4.8,5.6,4.6,5.6,4.3,5.6l0,0H2.8l0,0c-0.1,0-0.2,0.1-0.1,0.2
		l0,0v2.5l0,0C2.7,8.3,2.7,8.4,2.8,8.4z M9.7,13L9.7,13H8.5l0,0c-0.2,0-0.3-0.1-0.3-0.3l0,0V6.2l0,0c0-0.2,0.1-0.3,0.3-0.3l0,0h1.2
		l0,0C9.9,5.9,10,6,10,6.2l0,0v0.5H10l0,0c0.1-0.3,0.3-0.4,0.5-0.6l0,0l0,0c0.3-0.1,0.5-0.2,0.8-0.2l0,0h0.5l0,0
		c0.2,0,0.3,0.1,0.3,0.3l0,0v1l0,0c0,0.1,0,0.2-0.1,0.2l0,0l0,0c0,0-0.1,0.1-0.2,0.1l0,0h-1l0,0c-0.6,0-1,0.4-1,1.1l0,0v4.2l0,0
		C10,12.9,9.9,13,9.7,13z M16.5,13L16.5,13h-1.2l0,0c-0.7,0-1.3-0.2-1.7-0.6l0,0l0,0c-0.4-0.4-0.6-1-0.6-1.7l0,0V8.2l0,0
		c0-0.7,0.2-1.3,0.6-1.7l0,0l0,0c0.4-0.4,1-0.6,1.7-0.6l0,0h1.2l0,0c0.7,0,1.3,0.2,1.7,0.6l0,0l0,0c0.4,0.4,0.6,1,0.6,1.7l0,0v2.6
		l0,0c0,0.7-0.2,1.3-0.6,1.7l0,0l0,0C17.8,12.8,17.2,13,16.5,13z M15.5,11.5L15.5,11.5h0.7l0,0c0.3,0,0.5-0.1,0.6-0.2l0,0l0,0
		C17,11.2,17,11,17,10.7l0,0V8.2l0,0c0-0.3-0.1-0.5-0.2-0.6l0,0l0,0c-0.1-0.1-0.3-0.2-0.6-0.2l0,0h-0.7l0,0c-0.3,0-0.5,0.1-0.6,0.2
		l0,0l0,0c-0.1,0.1-0.2,0.3-0.2,0.6l0,0v2.5l0,0c0,0.3,0.1,0.5,0.2,0.6l0,0l0,0C15,11.4,15.2,11.5,15.5,11.5z M20.3,4.7L20.3,4.7
		V3.5l0,0c0-0.2,0.1-0.3,0.3-0.3l0,0h1.2l0,0C22,3.2,22,3.3,22,3.4l0,0v1.2l0,0C22,4.9,22,5,21.8,5l0,0h-1.2l0,0
		C20.4,5,20.3,4.9,20.3,4.7z M19.7,15.3L19.7,15.3h-0.9l0,0c-0.2,0-0.3-0.1-0.3-0.3l0,0v-0.9l0,0c0-0.2,0.1-0.3,0.3-0.3l0,0h0.4l0,0
		c0.4,0,0.7-0.1,0.9-0.2l0,0l0,0c0.2-0.1,0.2-0.4,0.2-0.9l0,0V6.2l0,0c0-0.2,0.1-0.3,0.3-0.3l0,0h1.2l0,0C22,5.9,22,6,22,6.2l0,0V13
		l0,0c0,0.7-0.2,1.3-0.6,1.7l0,0l0,0C21,15.1,20.5,15.3,19.7,15.3z M28.9,13L28.9,13h-3.1l0,0c-0.7,0-1.3-0.2-1.7-0.6l0,0l0,0
		c-0.4-0.4-0.6-1-0.6-1.7l0,0V8.2l0,0c0-0.7,0.2-1.3,0.6-1.7l0,0l0,0c0.4-0.4,1-0.6,1.7-0.6l0,0h1.1l0,0c0.7,0,1.3,0.2,1.7,0.6l0,0
		l0,0c0.4,0.4,0.6,1,0.6,1.7l0,0v1.8l0,0c0,0.2-0.1,0.3-0.3,0.3l0,0h-3.5l0,0c-0.1,0-0.2,0.1-0.2,0.2l0,0v0.3l0,0
		c0,0.3,0.1,0.5,0.2,0.6l0,0l0,0c0.1,0.1,0.3,0.2,0.6,0.2l0,0h2.8l0,0c0.2,0,0.3,0.1,0.3,0.3l0,0v0.9l0,0c0,0.1,0,0.2-0.1,0.2l0,0
		l0,0C29.1,13,29,13,28.9,13z M25.4,9L25.4,9h1.9l0,0c0.1,0,0.2,0,0.2-0.1l0,0V8.2l0,0c0-0.3-0.1-0.5-0.2-0.6l0,0l0,0
		c-0.1-0.1-0.3-0.2-0.6-0.2l0,0h-0.6l0,0c-0.3,0-0.5,0.1-0.6,0.2l0,0l0,0c-0.1,0.1-0.2,0.3-0.2,0.6l0,0v0.7l0,0
		C25.3,9,25.3,9,25.4,9z M30.7,7.4L30.7,7.4h-0.6l0,0c-0.1,0-0.2,0-0.2-0.1l0,0l0,0c0,0-0.1-0.1-0.1-0.2l0,0v-1l0,0
		c0-0.2,0.1-0.3,0.3-0.3l0,0h0.6l0,0c0.1,0,0.1-0.1,0.1-0.2l0,0V4.4l0,0c0-0.2,0.1-0.3,0.3-0.3l0,0h1.2l0,0c0.2,0,0.3,0.1,0.3,0.3
		l0,0v1.3l0,0c0,0.1,0.1,0.1,0.2,0.2l0,0h1.1l0,0c0.2,0,0.3,0.1,0.3,0.3l0,0v1l0,0c0,0.1,0,0.2-0.1,0.2l0,0l0,0c0,0-0.1,0.1-0.2,0.1
		l0,0h-1.1l0,0c-0.1,0-0.2,0-0.2,0.2l0,0v3.1l0,0c0,0.3,0.1,0.5,0.2,0.6l0,0l0,0c0.1,0.1,0.3,0.2,0.6,0.2l0,0h0.6l0,0
		c0.2,0,0.3,0.1,0.3,0.3l0,0v1l0,0c0,0.1,0,0.2-0.1,0.2l0,0l0,0c0,0-0.1,0.1-0.2,0.1l0,0h-0.9l0,0c-0.7,0-1.3-0.2-1.7-0.6l0,0l0,0
		c-0.4-0.4-0.6-1-0.6-1.7l0,0V7.6l0,0C30.9,7.5,30.8,7.4,30.7,7.4z M39.7,13L39.7,13h-1.3l0,0c-0.2,0-0.2-0.1-0.2-0.3l0,0l2.2-8.4
		l0,0C40.4,4.1,40.6,4,40.8,4l0,0h1.9l0,0c0.2,0,0.4,0.1,0.4,0.3l0,0l2.2,8.4l0,0c0.1,0.2,0,0.3-0.2,0.3l0,0h-1.3l0,0
		c-0.1,0-0.2,0-0.2-0.1l0,0l0,0c0,0-0.1-0.1-0.1-0.2l0,0l-0.4-1.5h-2.7L40,12.7l0,0c0,0.1-0.1,0.2-0.1,0.2l0,0l0,0
		C39.8,13,39.8,13,39.7,13z M41.8,5.7L41.8,5.7l-1.1,4.1h2.1L41.8,5.7z M46.5,7.4L46.5,7.4H46l0,0c-0.1,0-0.2,0-0.2-0.1l0,0l0,0
		c0,0-0.1-0.1-0.1-0.2l0,0v-1l0,0c0-0.2,0.1-0.3,0.3-0.3l0,0h0.6l0,0c0.1,0,0.2-0.1,0.2-0.2l0,0V4.4l0,0c0-0.2,0.1-0.3,0.3-0.3l0,0
		h1.2l0,0c0.2,0,0.3,0.1,0.3,0.3l0,0v1.3l0,0c0,0.1,0.1,0.1,0.2,0.2l0,0h1.1l0,0C49.9,5.9,50,6,50,6.2l0,0v1l0,0
		c0,0.1,0,0.2-0.1,0.2l0,0l0,0c0,0-0.1,0.1-0.2,0.1l0,0h-1.1l0,0c-0.1,0-0.2,0-0.2,0.2l0,0v3.1l0,0c0,0.3,0.1,0.5,0.2,0.6l0,0l0,0
		c0.1,0.1,0.3,0.2,0.6,0.2l0,0h0.6l0,0c0.2,0,0.3,0.1,0.3,0.3l0,0v1l0,0c0,0.1,0,0.2-0.1,0.2l0,0l0,0c0,0-0.1,0.1-0.2,0.1l0,0H49
		l0,0c-0.7,0-1.3-0.2-1.7-0.6l0,0l0,0c-0.4-0.4-0.6-1-0.6-1.7l0,0V7.6l0,0C46.7,7.5,46.6,7.4,46.5,7.4z M52.9,13L52.9,13h-1.2l0,0
		c-0.2,0-0.3-0.1-0.3-0.3l0,0V3.5l0,0c0-0.2,0.1-0.3,0.3-0.3l0,0h1.2l0,0c0.2,0,0.3,0.1,0.3,0.3l0,0v9.3l0,0
		C53.2,12.9,53.1,13,52.9,13z M57.3,13L57.3,13H57l0,0c-0.7,0-1.3-0.2-1.7-0.6l0,0l0,0c-0.4-0.4-0.6-1-0.6-1.7l0,0V8.2l0,0
		c0-0.7,0.2-1.3,0.6-1.7l0,0l0,0c0.4-0.4,1-0.6,1.7-0.6l0,0h3.2l0,0c0.2,0,0.3,0.1,0.3,0.3l0,0v6.6l0,0c0,0.2-0.1,0.3-0.3,0.3l0,0
		H59l0,0c-0.2,0-0.3-0.1-0.3-0.3l0,0v-0.5h-0.1l0,0c-0.1,0.3-0.3,0.4-0.5,0.6l0,0l0,0C57.9,13,57.6,13,57.3,13z M58.7,10.4
		L58.7,10.4V7.6l0,0c0-0.1-0.1-0.2-0.2-0.2l0,0h-1.3l0,0c-0.3,0-0.5,0.1-0.6,0.2l0,0l0,0c-0.1,0.1-0.2,0.3-0.2,0.6l0,0v2.4l0,0
		c0,0.3,0.1,0.5,0.2,0.6l0,0l0,0c0.1,0.1,0.3,0.2,0.6,0.2l0,0h0.5l0,0C58.4,11.5,58.7,11.1,58.7,10.4z M64.8,13L64.8,13h-2.7l0,0
		c-0.2,0-0.3-0.1-0.3-0.3l0,0v-0.9l0,0c0-0.1,0-0.2,0.1-0.2l0,0l0,0c0,0,0.1-0.1,0.2-0.1l0,0h2.3l0,0c0.5,0,0.7-0.1,0.7-0.4l0,0
		v-0.1l0,0c0-0.2-0.2-0.4-0.6-0.6l0,0l-1.4-0.8l0,0c-0.5-0.2-0.8-0.5-1.1-0.8l0,0l0,0c-0.2-0.3-0.3-0.6-0.3-1.1l0,0l0,0
		c0-0.7,0.2-1.1,0.5-1.4l0,0l0,0c0.3-0.3,0.9-0.5,1.6-0.5l0,0h2.3l0,0c0.2,0,0.3,0.1,0.3,0.3l0,0v0.9l0,0c0,0.1,0,0.2-0.1,0.2l0,0
		l0,0c0,0-0.1,0.1-0.2,0.1l0,0h-1.9l0,0c-0.5,0-0.7,0.1-0.7,0.3l0,0v0.1l0,0c0,0.2,0.2,0.4,0.6,0.6l0,0l1.4,0.8l0,0
		c0.5,0.3,0.8,0.5,1,0.8l0,0l0,0c0.2,0.3,0.3,0.6,0.3,1.1l0,0l0,0C66.9,12.4,66.2,13,64.8,13z"/>
</g>
<g id="_x30_3b41eb1-3a3f-4ae5-b716-48a2eab720a9" transform="matrix(1.1111111111111112,0,0,1.1111111111111112,0.9594429863823777,0.44444444444444287)">
	<path class="st2" d="M155.1,0.4v100h45.5V0.4H155.1z M168.8,82.2h-9.1v-9.1h9.1C168.8,73.1,168.8,82.2,168.8,82.2z M168.8,68.6
		h-9.1v-9.1h9.1V68.6z M168.8,54.9h-9.1v-9.1h9.1V54.9z M168.8,41.3h-9.1v-9.1h9.1V41.3z M168.8,27.7h-9.1v-9.1h9.1V27.7z M168.8,14
		h-9.1V4.9h9.1C168.8,4.9,168.8,14,168.8,14z M182.4,82.2h-9.1v-9.1h9.1V82.2z M182.4,68.6h-9.1v-9.1h9.1V68.6z M182.4,54.9h-9.1
		v-9.1h9.1V54.9z M182.4,41.3h-9.1v-9.1h9.1V41.3z M182.4,27.7h-9.1v-9.1h9.1V27.7z M182.4,14h-9.1V4.9h9.1V14L182.4,14z M196,82.2
		h-9.1v-9.1h9.1C196,73.1,196,82.2,196,82.2z M196,68.6h-9.1v-9.1h9.1V68.6z M196,54.9h-9.1v-9.1h9.1V54.9z M196,41.3h-9.1v-9.1h9.1
		V41.3z M196,27.7h-9.1v-9.1h9.1V27.7z M196,14h-9.1V4.9h9.1V14L196,14z M206.9,27.7v72.7h45.5V27.7H206.9z M220.6,82.2h-9.1v-9.1
		h9.1C220.6,73.1,220.6,82.2,220.6,82.2z M220.6,68.6h-9.1v-9.1h9.1V68.6z M220.6,54.9h-9.1v-9.1h9.1V54.9z M220.6,41.3h-9.1v-9.1
		h9.1V41.3z M234.2,82.2h-9.1v-9.1h9.1V82.2z M234.2,68.6h-9.1v-9.1h9.1V68.6z M234.2,54.9h-9.1v-9.1h9.1V54.9z M234.2,41.3h-9.1
		v-9.1h9.1V41.3z M247.9,82.2h-9.1v-9.1h9.1V82.2z M247.9,68.6h-9.1v-9.1h9.1V68.6z M247.9,54.9h-9.1v-9.1h9.1V54.9z M247.9,41.3
		h-9.1v-9.1h9.1V41.3z"/>
</g>
<rect x="-481" y="-199" class="st3" width="138" height="110"/>
</svg>
